<?xml version="1.0" standalone="no"?>
<!DOCTYPE svg PUBLIC "-//W3C//DTD SVG 20010904//EN"
 "http://www.w3.org/TR/2001/REC-SVG-20010904/DTD/svg10.dtd">
<svg version="1.0" xmlns="http://www.w3.org/2000/svg"
 width="1024.000000pt" height="1024.000000pt" viewBox="0 0 1024.000000 1024.000000"
 preserveAspectRatio="xMidYMid meet">
<metadata>
Created by potrace 1.11, written by Peter Selinger 2001-2013
</metadata>
<g transform="translate(0.000000,1024.000000) scale(0.100000,-0.100000)"
fill="#000000" stroke="none">
<path d="M4630 8373 c-190 -31 -356 -78 -488 -139 -416 -190 -686 -557 -806
-1094 -58 -261 -59 -283 -63 -1092 l-4 -748 735 0 736 0 0 740 0 740 -275 0
-275 0 0 128 c0 297 50 497 164 657 79 109 190 194 319 240 l62 23 3 276 2
276 -42 -1 c-24 -1 -54 -4 -68 -6z"/>
<path d="M6850 8373 c-190 -31 -356 -78 -488 -139 -416 -190 -686 -557 -806
-1094 -58 -261 -59 -283 -63 -1092 l-4 -748 735 0 736 0 0 740 0 740 -275 0
-275 0 0 128 c0 297 50 497 164 657 79 109 190 194 319 240 l62 23 3 276 2
276 -42 -1 c-24 -1 -54 -4 -68 -6z"/>
</g>
</svg>
